<svg width="36" height="36" viewBox="0 0 36 36" fill="none" xmlns="http://www.w3.org/2000/svg">
<circle cx="18" cy="18" r="16" fill="#7B61FF"/>
<path d="M18.1641 17.55V18.0969C18.1641 18.8488 18.0661 19.5233 17.8702 20.1203C17.6742 20.7173 17.3939 21.2254 17.0293 21.6447C16.6693 22.064 16.2364 22.3853 15.7305 22.6086C15.2247 22.8273 14.6641 22.9367 14.0489 22.9367C13.4382 22.9367 12.8799 22.8273 12.3741 22.6086C11.8728 22.3853 11.4375 22.064 11.0684 21.6447C10.6993 21.2254 10.4122 20.7173 10.2071 20.1203C10.0066 19.5233 9.9063 18.8488 9.9063 18.0969V17.55C9.9063 16.798 10.0066 16.1258 10.2071 15.5334C10.4076 14.9364 10.6902 14.4282 11.0547 14.009C11.4239 13.5851 11.8591 13.2639 12.3604 13.0451C12.8663 12.8218 13.4245 12.7101 14.0352 12.7101C14.6504 12.7101 15.211 12.8218 15.7168 13.0451C16.2227 13.2639 16.6579 13.5851 17.0225 14.009C17.3871 14.4282 17.6674 14.9364 17.8633 15.5334C18.0639 16.1258 18.1641 16.798 18.1641 17.55ZM16.4483 18.0969V17.5363C16.4483 16.9803 16.3936 16.4904 16.2842 16.0666C16.1794 15.6382 16.0222 15.2805 15.8125 14.9933C15.6075 14.7017 15.3545 14.4829 15.0538 14.3371C14.753 14.1867 14.4135 14.1115 14.0352 14.1115C13.6569 14.1115 13.3197 14.1867 13.0235 14.3371C12.7273 14.4829 12.4743 14.7017 12.2647 14.9933C12.0596 15.2805 11.9024 15.6382 11.793 16.0666C11.6836 16.4904 11.629 16.9803 11.629 17.5363V18.0969C11.629 18.6529 11.6836 19.145 11.793 19.5734C11.9024 20.0018 12.0619 20.3641 12.2715 20.6603C12.4857 20.952 12.7409 21.173 13.0372 21.3234C13.3334 21.4693 13.6706 21.5422 14.0489 21.5422C14.4317 21.5422 14.7712 21.4693 15.0674 21.3234C15.3637 21.173 15.6143 20.952 15.8194 20.6603C16.0245 20.3641 16.1794 20.0018 16.2842 19.5734C16.3936 19.145 16.4483 18.6529 16.4483 18.0969ZM26.3946 21.4396V22.8H21.1104V21.4396H26.3946ZM21.5958 12.8469V22.8H19.8799V12.8469H21.5958ZM25.7042 17.0031V18.343H21.1104V17.0031H25.7042ZM26.3604 12.8469V14.2141H21.1104V12.8469H26.3604Z" fill="white"/>
</svg>
